<?xml version="1.0" encoding="iso-8859-1"?>
<!-- Generator: Adobe Illustrator 16.0.0, SVG Export Plug-In . SVG Version: 6.00 Build 0)  -->
<!DOCTYPE svg PUBLIC "-//W3C//DTD SVG 1.1//EN" "http://www.w3.org/Graphics/SVG/1.1/DTD/svg11.dtd">
<svg version="1.1" id="Layer_1" xmlns="http://www.w3.org/2000/svg" xmlns:xlink="http://www.w3.org/1999/xlink" x="0px" y="0px"
	 width="453.543px" height="107.716px" viewBox="0 0 453.543 107.716" style="enable-background:new 0 0 453.543 107.716;"
	 xml:space="preserve">
<g>
	<g>
		<path style="fill-rule:evenodd;clip-rule:evenodd;fill:#E11D3E;" d="M56.133,3.293c0.046,0,0.094,0,0.143,0
			c-0.104,0.826-1.086,0.79-1.774,1.052c-0.713,0.256-1.451,0.522-1.846,1.044c0.231,0.927,1.197,1.181,1.917,0.946
			c1.592-0.522,3.373-0.51,5.003-0.344c0.767,0.081,1.554,0.645,1.951,1.199c-1.284,0.709-3.731-0.543-5.183,0.29
			c-0.879,0.502-0.766,3.419-0.85,5.321c-0.568,12.851-0.414,24.474-4.896,32.138c-0.618,1.062-1.644,2.927-2.552,3.233
			c-1.631,0.551-3.68,0.236-5.322-0.192c-1.659-0.424-2.93-1.286-4.47-1.616c0.19,0.949,1.108,0.98,1.703,1.245
			c1.846,0.8,4.139,1.419,6.312,1.802c-2.077,0.335-5.05-0.794-6.173,1.141c-0.567,0.984-0.978,3.838-1.133,5.229
			c-0.677,6.062,0.189,13.038,1.489,17.784c0.933,3.409,2.327,6.622,4.326,9.03c0.438,0.528,1.858,1.642,1.704,2.57
			c-0.173,1.039-2.379,0.529-3.546,0.567c-3.861,0.127-8.097,0.622-11.778,0.762c-5.951,0.226-10.116-1.175-13.477-3.899
			C12.85,78.68,9.231,71.597,8.459,61.866c-0.188-2.349-0.396-4.975-0.393-7.489c0-0.98,0.03-1.945,0.109-2.873
			c0.178-2.07,1.008-4.197,1.776-5.613c0.814-1.505,1.994-2.821,3.188-3.61c4.154-2.744,11.164-1.84,15.537,0
			c2.25,0.946,3.64,2.169,6.174,2.38c-0.074-0.754-0.736-0.563-1.065-0.667c-2.576-0.781-4.979-2.904-7.661-3.712
			c-0.627-0.185-1.301-0.117-1.844-0.667c0.434-0.994,1.412-1.24,2.057-1.8c3.602-3.126,6.759-6.2,9.799-9.729
			c1.221-1.419,2.846-2.283,4.248-3.398c-0.689,1.676-1.36,2.195-3.05,4.185c-3.277,3.853-5.649,6.849-9.44,9.88
			c0.321,0.845,0.341,0.814,0.795,1.321c0.633,0.707,1.804,0.49,2.615,0.457c1.214-0.051,2.384-0.853,3.262-1.964
			c2.924-3.698,5.436-8.302,7.662-12.736c2.371-4.736,4.15-9.523,6.102-14.838c0.598-1.625,1.246-3.946,1.986-4.94
			C51.615,4.294,54.292,4.167,56.133,3.293L56.133,3.293z"/>
		<path style="fill-rule:evenodd;clip-rule:evenodd;fill:#E11D3E;" d="M222.775,68.999c-0.495,0.725-1.043,2.159-0.922,3.039
			c0.113,0.784,1.121,1.842,1.704,2.187c2.435,1.467,6.712-0.006,7.308-2.752c0.746-3.435-1.759-4.769-3.976-4.66
			C225.314,66.892,223.692,67.662,222.775,68.999L222.775,68.999z M193.548,69.286c3.467,3.627,10.004,0.883,10.428-4.852
			c0.327-4.441-1.768-7.046-5.322-6.845c-2.995,0.168-5.168,1.797-6.453,4.473C191.507,65.148,192.235,67.911,193.548,69.286
			L193.548,69.286z M193.619,25.256c0.246,5.98-0.746,11.616-0.355,17.784c0.384,0.105,0.949-0.378,1.28-0.666
			c1.645-0.245,3.161-1.038,5.106-1.045c6.433-0.035,11.183,4.863,13.618,10.645c0.896,2.141,1.504,4.394,1.987,6.95
			c-0.064,0.85,0.195,1.253,0.141,2.092c2.265-2.231,5.952-4.495,10.148-4.565c2.548-0.051,4.761,1.114,6.173,3.038
			c0.355-2.924-0.373-5.137-1.706-6.179c-3.1-2.418-9.353-0.031-12.625,0.665c0.374-3.966,1.342-7.141,1.701-11.126
			c4.402-1.411,9.333-2.85,14.612-2.095c6.249,0.907,10.118,5.569,10.998,13.221c0.482,4.183,0.048,9.263-0.212,13.886
			c-0.109,1.88-0.346,3.603-0.5,5.608c-0.287,3.798,0.119,7.217,0.074,10.84c-3.55,0.504-7.55,0.91-10.995,1.237
			c-0.16-1.016-0.027-2.438-0.074-3.616c-0.966,0.766-1.933,1.794-3.191,2.379c-6.447,3.019-15.464-0.406-15.894-9.317
			c-0.553,0.7-0.949,1.897-1.561,2.663c-3.213,4.006-7.973,8.165-13.828,8.181c-3.166,0-5.735-1.301-7.881-3.239
			c-0.354,0.637-0.302,1.307-0.635,1.812c-1.549,2.349-5.943,0.396-8.584,0.948c-0.339-19.426-0.74-38.445-0.636-58.765
			c0.86-0.599,1.844-0.291,2.767-0.383C186.74,25.903,189.821,24.992,193.619,25.256L193.619,25.256z"/>
		<path style="fill-rule:evenodd;clip-rule:evenodd;fill:#E11D3E;" d="M179.148,41.52c0.649,3.686-0.422,7.057-1.065,10.271
			c-0.381,1.91-0.765,3.75-0.993,5.7c-0.795,0.141-1.801-0.148-2.695,0c-7.602,1.233-4.57,17.161-5.254,27.294
			c-3.983,0.039-7.504,0.711-11.207,1.14c0-14.162-0.295-28.426-0.637-42.408c1.777-1.223,5.916-1.075,8.581-1.426
			c1.371-0.186,2.819-1.24,3.123,1.046c0.184,1.352-0.383,3.288-0.21,4.942C170.477,43.592,173.956,40.992,179.148,41.52
			L179.148,41.52z"/>
		<path style="fill-rule:evenodd;clip-rule:evenodd;fill:#E11D3E;" d="M270.163,41.707c0.482,6.07-1.715,10.188-2.123,15.698
			c-0.698,0.296-1.796-0.063-2.702,0.085c-7.582,1.214-4.444,17.408-5.177,27.487c-4.085,0-7.653,0.702-11.42,1.137
			c-0.054-14.264-0.147-29.747-0.495-42.7c1.844-1.068,5.877-0.977,8.511-1.324c0.836-0.113,1.98-0.85,2.622-0.289
			c1.123,0.982,0.133,4.357,0.287,6.372c1.365-4.063,4.324-6.212,8.304-6.653C268.683,41.438,269.692,41.233,270.163,41.707
			L270.163,41.707z"/>
		<path style="fill-rule:evenodd;clip-rule:evenodd;fill:#E11D3E;" d="M280.241,64.714c0.449,7.029,8.749,7.134,11.274,1.908
			c0.795-1.641,0.998-5.21,0.218-7.134c-0.76-1.866-2.455-2.769-4.541-2.756C283.148,56.768,279.898,59.454,280.241,64.714
			L280.241,64.714z M303.932,58.825c0.676,5.804-0.044,11.245-1.558,15.216c-0.333,0.87-0.694,1.807-1.141,2.566
			c-0.226,0.387-0.534,0.659-0.772,1.047c-0.233,0.361-0.347,0.86-0.57,1.23c-1.154,1.943-3.751,4.029-5.818,5.141
			c-0.391,0.209-0.845,0.302-1.276,0.467c-2.672,1.082-6.241,1.536-9.649,0.863c-3.521-0.692-6.857-2.749-9.222-5.324
			c-2.467-2.687-4.277-6.321-5.18-10.654c-0.404-3.358-0.399-6.564,0-9.511c1.322-9.769,6.026-15.886,13.195-17.776
			c1.045-0.271,2.42-0.463,3.617-0.57c5.208-0.479,9.239,1.664,12.204,4.66C300.791,49.229,302.851,53.394,303.932,58.825
			L303.932,58.825z"/>
		<path style="fill-rule:evenodd;clip-rule:evenodd;fill:#E11D3E;" d="M139.703,72.9c0.472-0.636,0.881-1.831,0.78-2.952
			c-0.196-2.177-1.997-3.278-3.971-3.229c-2.744,0.067-4.78,2.1-5.18,5.223C132.387,75.56,137.789,75.471,139.703,72.9L139.703,72.9
			z M104.232,59.015c-1.768,1.217-2.84,2.836-2.765,5.994c0.133,5.819,6.553,7.715,10.07,4.083c1.049-1.083,1.946-2.876,1.985-5.324
			c0.071-4.235-2.024-6.354-5.388-6.082C106.631,57.809,105.421,58.195,104.232,59.015L104.232,59.015z M63.438,3.959
			c2.554,0.489,4.053,2.445,5.959,4.373c6.643,6.718,12.221,14.206,17.172,23.104c0.979,1.771,1.333,3.358,2.186,5.283
			c0.865,1.954,2.93,6.027,2.425,6.097c-2.587,0.35-4.881,0.532-6.266,2.1c1.354,0.118,3.673-0.336,5.411-0.45
			c0.68-0.039,1.425,0.178,2.06-0.194c0.093-1.295-0.52-2.107-0.921-3.137c-0.342-0.863-0.961-1.937-1.065-2.85
			c-0.18-1.598,0.069-3.924,0.069-5.797c0-1.901,0-3.802,0-5.804c4.035-0.55,8.274-1.336,12.556-1.232
			c0.225,5.135-0.769,12.031-0.353,17.874c2.139-1.013,3.894-1.984,6.527-1.997c8.093-0.045,14.653,8.103,15.536,17.976
			c0.067,0.761-0.099,1.394,0.073,1.99c0.613-0.324,1.123-1.007,1.77-1.518c1.751-1.384,4.359-2.746,6.885-3.045
			c3.352-0.391,5.981,0.626,7.874,2.857c1.421-10.509-9.571-7.264-14.26-5.803c0.397-3.842,1.27-7.048,1.702-10.842
			c7.741-2.955,18.935-3.749,23.196,3.803c2.304,4.086,2.552,9.979,2.13,16.447c-0.441,6.737-1.087,14.362-0.639,21.017
			c-3.639,0.322-7.11,0.87-10.785,1.144c-0.041-1.207,0.094-2.654-0.071-3.708c-0.253-0.335-0.446,0.362-0.634,0.568
			c-0.227,0.251-0.591,0.604-0.782,0.762c-5.904,4.791-17.5,1.798-17.663-8.368c-0.564,0.587-0.809,1.523-1.277,2.279
			c-2.838,4.587-8.074,8.931-14.19,8.946c-3.308,0-5.728-1.428-7.945-3.14c-0.579,4.523-6.196,2.193-9.152,2.66
			c0.056-0.863-0.306-2.581-0.071-3.708c0.122-0.575,1.126-1.567,1.492-2.096c1.431-2.06,2.652-4.495,3.688-7.038
			c1.362-3.342,2.567-7.456,2.836-12.164c0.255-4.417,0.134-10.09-1.914-12.652c1.13,3.109,1.36,7.365,1.133,11.317
			c-0.393,7.004-2.44,12.595-5.177,17.214c-1.963,3.317-4.216,6.089-7.235,8.369c-1.854,1.396-3.674,2.336-6.456,2.339h-0.04
			c-0.392-0.003-0.803-0.025-1.239-0.054c-2.222-0.203-4.457-0.832-6.81-0.959c-7.079-0.378-14.807-0.535-22.124-0.439
			c0.484-0.007-1.486-1.169,1.621-1.879c2.349-0.539,5.327-0.255,8.375-0.255c3.597,0,7.353,0.785,10.346,0.255
			c1.894-0.344,2.563-1.477,3.415-3.767c1.635-4.419,3.431-9.976,3.831-15.497c0.314-4.285-0.032-9.822-1.276-12.552
			c-0.974-2.146-3.11-1.861-5.461-1.331c-1.04,0.232-2.112,0.433-3.053,0.762c-2.784,0.968-5.109,2.214-8.583,1.899
			c-1.844-0.168-3.747,0.324-5.167-0.246c-1.369-0.55-2.804-0.864-3.982-2.61c0.289,0.429-0.564-0.361,0.913-0.387
			c3.033-0.053,6.474-0.496,10.497-0.763c4.019-0.267,7.309-0.482,10.687-1.32c1.26-2.272,2.364-3.608,2.092-7.513
			c-0.215-3.066-1.266-6.156-2.344-8.934c-2.605-6.745-5.956-11.806-7.942-19.496c-0.145-0.562-0.435-1.406-0.569-2.279
			c-0.14-0.918-0.362-2.12-0.283-2.571c0.177-1.061,1.381-1.142,1.702-2.188C63.893,4.337,63.27,4.335,63.438,3.959L63.438,3.959z"
			/>
		<path style="fill-rule:evenodd;clip-rule:evenodd;fill:#E11D3E;" d="M334.819,84.793c-1.068,0.518-9.607,0.091-10.856,0.056
			c-0.761-0.365,0.03-9.528-0.141-15.562c-0.105-1.877,0.179-4.025,0-6.185c-0.301-3.668-1.113-7.239-4.329-5.611
			c-1.1,3.731-1.019,9.611-0.851,14.548c0.179,5.12,0.364,6.905-0.173,12.717c-2.473,1.71-10.424,0.195-12.381,0.378
			c-1.654-4.381,0.49-37.359,0.138-41.14c2.016-1.302,5.115-0.848,8.02-1.335c1.27-0.208,2.531-0.697,3.545-0.091
			c0.454,0.914,0.461,2.815,0.429,4.089c2.327-1.126,3.062-3.965,5.464-4.566c1.331-0.332,3.354-0.412,4.754,0
			c5.755,1.688,6.973,11.119,7.305,20.821c0.102,3.015,0.029,6.073-0.076,9.031C336.027,77.765,335.897,84.26,334.819,84.793
			L334.819,84.793z"/>
		<path style="fill-rule:evenodd;clip-rule:evenodd;fill:#E11D3E;" d="M406.439,86.223c-0.226,1.546-0.838,2.72-1.703,3.4
			c-3.1,2.422-9.356,0.035-12.631-0.665c0.375,3.962,1.343,7.138,1.705,11.128c4.401,1.405,9.333,2.848,14.615,2.09
			c5.775-0.833,8.376-4.303,9.425-10.877c0.648-2.76,0.782-6.052,0.794-9.943c0.075-3.124,0.036-6.613,0.068-11.892
			c-0.007-0.1-0.018-0.194-0.024-0.292c0-0.16,0.006-0.322,0.012-0.487c0.271-10.136,0.105-16.777-0.073-26.952
			c-2.635,0.556-7.466-1.397-9.014,0.959c-0.329,0.492-0.28,1.167-0.638,1.804c-2.141-1.938-4.71-3.242-7.872-3.237
			c-5.864,0.017-10.624,4.176-13.838,8.183c-4.646,7.286-3.613,19.265-0.922,25.674c2.438,5.784,7.189,10.68,13.623,10.647
			c1.951-0.013,3.458-0.803,5.112-1.048c0.332-0.278,0.89-0.765,1.274-0.667C406.397,84.784,406.425,85.508,406.439,86.223
			L406.439,86.223z M406.066,57.809c-3.472-3.635-10.003-0.887-10.426,4.844c-0.331,4.446,1.769,7.05,5.319,6.85
			c2.998-0.173,5.169-1.804,6.455-4.47C408.108,61.939,407.376,59.184,406.066,57.809L406.066,57.809z M361.684,25.171
			c0.25,5.974-0.739,11.612-0.352,17.774c0.386,0.111,0.943-0.372,1.278-0.665c1.647-0.246,3.161-1.034,5.108-1.044
			c6.434-0.034,11.183,4.858,13.623,10.651c2.69,6.404,3.723,18.385-0.924,25.67c-3.218,4.011-7.973,8.16-13.835,8.182
			c-3.164,0.007-5.729-1.292-7.874-3.234c-0.358,0.629-0.309,1.301-0.641,1.804c-1.549,2.354-5.946,0.399-8.586,0.951
			c-0.338-19.429-0.743-38.445-0.634-58.76c0.864-0.6,1.839-0.294,2.764-0.381C354.806,25.808,357.895,24.899,361.684,25.171
			L361.684,25.171z M361.616,69.193c3.466,3.629,10.007,0.886,10.426-4.852c0.332-4.438-1.771-7.055-5.316-6.844
			c-2.999,0.162-5.173,1.8-6.461,4.464C359.578,65.07,360.306,67.822,361.616,69.193L361.616,69.193z"/>
		<path style="fill-rule:evenodd;clip-rule:evenodd;fill:#E11D3E;" d="M350.209,75.055c-1.091,2.583-3.823,7.859-4.284,9.721
			c-1.35,2.717-7.002-2.4-10.211-5.055c1.339-5.714,2.928-11.083,6.509-13.791c3.506,0.921,5.605,3.699,7.796,6.372
			C350.521,73.616,350.762,73.739,350.209,75.055L350.209,75.055z"/>
	</g>
	<g>
		<path style="display:none;fill:#E11D3E;" d="M435.738,31.497c-0.763,0-1.287,0.076-1.587,0.162v3.633h1.358
			c1.582,0,2.873-0.543,2.873-1.852C438.382,32.274,437.55,31.497,435.738,31.497z"/>
		<path style="display:none;fill:#E11D3E;" d="M435.966,25.721c-5.372,0-9.481,4.561-9.481,10.109
			c0,5.627,4.109,10.118,9.632,10.118c5.36,0.069,9.439-4.491,9.439-10.038C445.556,30.281,441.477,25.721,435.966,25.721z
			 M438.988,42.39c-0.381-0.464-0.606-1.525-0.979-3.074c-0.232-1.323-0.988-1.936-2.573-1.936h-1.358v5.01h-2.87V29.744
			c1.128-0.158,2.718-0.388,4.758-0.388c2.34,0,3.393,0.388,4.229,1.004c0.758,0.538,1.282,1.454,1.282,2.689
			c0,1.549-1.13,2.555-2.573,3.021v0.146c1.215,0.391,1.814,1.393,2.191,3.098c0.381,1.912,0.685,2.61,0.914,3.074H438.988z"/>
		<path style="fill:#E11D3E;" d="M438.904,36.218v-0.146c1.443-0.467,2.573-1.473,2.573-3.021c0-1.235-0.524-2.151-1.282-2.689
			c-0.836-0.616-1.889-1.004-4.229-1.004c-2.041,0-3.63,0.229-4.758,0.388V42.39h2.87v-5.01h1.358c1.584,0,2.341,0.612,2.573,1.936
			c0.374,1.549,0.599,2.61,0.979,3.074h3.022c-0.229-0.464-0.533-1.162-0.914-3.074C440.719,37.61,440.119,36.608,438.904,36.218z
			 M435.509,35.292h-1.358v-3.633c0.3-0.086,0.824-0.162,1.587-0.162c1.812,0,2.644,0.777,2.644,1.943
			C438.382,34.749,437.091,35.292,435.509,35.292z"/>
		<path style="fill:#E11D3E;" d="M436.117,23.164c-7.142,0-12.803,5.57-12.803,12.666c0,7.095,5.662,12.749,12.724,12.749
			c7.104,0,12.691-5.654,12.691-12.749C448.728,28.734,443.141,23.164,436.117,23.164z M436.117,45.948
			c-5.523,0-9.632-4.491-9.632-10.118c0-5.549,4.109-10.109,9.481-10.109c5.511,0,9.59,4.561,9.59,10.189
			C445.556,41.457,441.477,46.018,436.117,45.948z"/>
	</g>
</g>
</svg>
